<svg width="16" height="16" viewBox="0 0 16 16" fill="none" xmlns="http://www.w3.org/2000/svg">
<path d="M10.666 5.66666H11.9993C11.9993 3.77533 10.1627 2.91266 8.666 2.71399V1.33333H7.33266V2.71399C5.836 2.91266 3.99933 3.77533 3.99933 5.66666C3.99933 7.47066 5.77666 8.40866 7.33266 8.61999V11.9333C6.36733 11.766 5.33266 11.2507 5.33266 10.3333H3.99933C3.99933 12.0593 5.61599 13.0793 7.33266 13.2907V14.6667H8.666V13.2867C10.1627 13.088 11.9993 12.2247 11.9993 10.3333C11.9993 8.44199 10.1627 7.57933 8.666 7.38066V4.06666C9.55266 4.22599 10.666 4.69399 10.666 5.66666ZM5.33266 5.66666C5.33266 4.69399 6.446 4.22599 7.33266 4.06666V7.26599C6.41866 7.09733 5.33266 6.59799 5.33266 5.66666ZM10.666 10.3333C10.666 11.306 9.55266 11.774 8.666 11.9333V8.73333C9.55266 8.89266 10.666 9.36066 10.666 10.3333Z" fill="#05BCCA"/>
</svg>
